<?xml version="1.0" encoding="UTF-8" standalone="no"?>
<svg
   id="svg2"
   viewBox="0 0 662.97 631.89"
   version="1.1"
   sodipodi:docname="witch-hat.svg"
   inkscape:version="1.4 (e7c3feb100, 2024-10-09)"
   xmlns:inkscape="http://www.inkscape.org/namespaces/inkscape"
   xmlns:sodipodi="http://sodipodi.sourceforge.net/DTD/sodipodi-0.dtd"
   xmlns:xlink="http://www.w3.org/1999/xlink"
   xmlns="http://www.w3.org/2000/svg"
   xmlns:svg="http://www.w3.org/2000/svg"
   xmlns:rdf="http://www.w3.org/1999/02/22-rdf-syntax-ns#"
   xmlns:cc="http://creativecommons.org/ns#"
   xmlns:dc="http://purl.org/dc/elements/1.1/">
  <sodipodi:namedview
     id="namedview1"
     pagecolor="#ffffff"
     bordercolor="#000000"
     borderopacity="0.25"
     inkscape:showpageshadow="2"
     inkscape:pageopacity="0.0"
     inkscape:pagecheckerboard="0"
     inkscape:deskcolor="#d1d1d1"
     inkscape:zoom="0.86881763"
     inkscape:cx="238.25483"
     inkscape:cy="392.48743"
     inkscape:window-width="1914"
     inkscape:window-height="1045"
     inkscape:window-x="0"
     inkscape:window-y="29"
     inkscape:window-maximized="1"
     inkscape:current-layer="layer1" />
  <defs
     id="defs4">
    <linearGradient
       id="linearGradient2">
      <stop
         id="stop1"
         stop-color="#555"
         offset="0"
         style="stop-color:#000000;stop-opacity:1;" />
      <stop
         id="stop2"
         offset="1" />
    </linearGradient>
    <linearGradient
       id="linearGradient3651">
      <stop
         id="stop3653"
         stop-color="#555"
         offset="0" />
      <stop
         id="stop3655"
         offset="1" />
    </linearGradient>
    <radialGradient
       id="radialGradient2874"
       xlink:href="#linearGradient2"
       gradientUnits="userSpaceOnUse"
       cy="23.686"
       cx="16.668"
       gradientTransform="matrix(3.9278 13.467 -24.752 7.2194 388.69 735.29)"
       r="15.514" />
    <linearGradient
       id="linearGradient2902"
       y2="21.984"
       xlink:href="#linearGradient3651"
       gradientUnits="userSpaceOnUse"
       x2="33.04"
       gradientTransform="matrix(16 0 0 16 -388.12 634.75)"
       y1="21.984"
       x1="13" />
    <linearGradient
       id="linearGradient2904"
       y2="37"
       gradientUnits="userSpaceOnUse"
       x2="34"
       gradientTransform="matrix(16 0 0 16 -388.12 634.75)"
       y1="33"
       x1="14">
      <stop
         id="stop2870"
         stop-color="#706ee5"
         offset="1"
         style="stop-color:#746fe4;stop-opacity:1;" />
      <stop
         id="stop2872"
         stop-color="#6e006e"
         offset="1" />
    </linearGradient>
    <linearGradient
       id="linearGradient2918"
       y2="33.391"
       gradientUnits="userSpaceOnUse"
       x2="27.078"
       gradientTransform="matrix(15.81 3.0046 -2.4583 19.323 -326.36 433.46)"
       y1="35.5"
       x1="30.344">
      <stop
         id="stop3691"
         stop-color="#ffea00"
         offset="1" />
      <stop
         id="stop3693"
         stop-color="#ffffa4"
         offset="1" />
    </linearGradient>
    <filter
       id="filter3694"
       height="1.1452076"
       width="1.2009627"
       y="-0.072603793"
       x="-0.10048136"
       color-interpolation-filters="sRGB">
      <feGaussianBlur
         id="feGaussianBlur3696"
         stdDeviation="0.29117145" />
    </filter>
    <filter
       id="filter3700"
       height="1.3656453"
       width="1.2652179"
       y="-0.18282264"
       x="-0.13260893"
       color-interpolation-filters="sRGB">
      <feGaussianBlur
         id="feGaussianBlur3702"
         stdDeviation="0.23828167" />
    </filter>
    <filter
       id="filter3710"
       height="1.1818802"
       width="1.3442553"
       y="-0.09094012"
       x="-0.17212764"
       color-interpolation-filters="sRGB">
      <feGaussianBlur
         id="feGaussianBlur3712"
         stdDeviation="0.12433409" />
    </filter>
    <filter
       id="filter3720"
       height="1.1924033"
       width="1.3907784"
       y="-0.096201666"
       x="-0.19538922"
       color-interpolation-filters="sRGB">
      <feGaussianBlur
         id="feGaussianBlur3722"
         stdDeviation="0.08393595" />
    </filter>
    <filter
       id="filter3650"
       height="1.2817341"
       width="1.1294286"
       y="-0.14086705"
       x="-0.064714319"
       color-interpolation-filters="sRGB">
      <feGaussianBlur
         id="feGaussianBlur3652"
         stdDeviation="0.94350962" />
    </filter>
    <linearGradient
       inkscape:collect="always"
       xlink:href="#linearGradient2918"
       id="linearGradient10"
       x1="-0.107"
       y1="1189.524"
       x2="100.16087"
       y2="1357.5685"
       gradientUnits="userSpaceOnUse" />
  </defs>
  <g
     id="layer1"
     transform="translate(344.05 -760.55)">
    <path
       id="path2865"
       d="m 239.88,1138.8 c 8.9415,35.077 -20.635,72.604 -46.111,98.319 -43.759,44.17 -107.27,68.056 -168.13,80.779 -66.226,13.845 -140.11,18.091 -202.84,-7.2482 -49.425,-19.964 -113.75,-53.835 -118.95,-106.89 -4.3332,-44.216 43.678,-80.993 79.958,-106.64 42.231,-29.852 96.941,-38.565 148.07,-46.327 62.143,-9.4345 128.85,-19.266 188.57,0.3557 46.913,15.415 107.24,39.794 119.43,87.644 z"
       fill="url(#radialGradient2874)"
       fill-rule="evenodd"
       inkscape:label="path2865"
       style="display:inline;fill:#0a0a0a;fill-opacity:1" />
    <path
       id="path2876"
       d="m-180.12 1194.8c6.1991-0.536 16-128 32-192s32-96 32-160c-16-32-48-64-48-64s112 0 128 64 80 176 96 208 80 80 80 80c16 96-272 160-320 64z"
       style="color:#000000;fill:#0d0d0d;fill-opacity:1"
       fill="url(#linearGradient2902)" />
    <path
       id="path2897"
       d="m107.93 1105.1c-10.383 18.648-20.306 23.084-29.556 32.333-30 30-113.28 60-161.28 44-17.208-5.736-73.206-17.102-86.889-48.833-7.8007 12.544-9.2447 61.185-10.333 62.111 48 96 336 32 320-64 0 0-21.059-22.982-31.944-25.611z"
       style="color:#000000;fill:#746fe4;fill-opacity:1;fill-rule:nonzero"
       fill="url(#linearGradient2904)" />
    <path
       id="path2908"
       d="m 67.599,1147.2 c -23.965,5.0103 -45.982,17.469 -67.706,31.042 l 18.48,53.606 c 24.555,-5.6125 49.229,-8.4882 67.976,-25.731 z m -8.9143,14.385 15.537,36.967 c -10.737,8.8856 -27.359,13.343 -49.29,20.1 l -9.5914,-36.546 c 5.8297,-3.8614 11.768,-8.0375 16.567,-8.9116 l 2.2895,7.8564 9.2056,-4.7437 -1.3398,-7.3672 c 4.1375,-3.0808 9.3025,-5.7009 16.622,-7.3547 z"
       style="color:#000000;display:none;fill:url(#linearGradient10)"
       fill="url(#linearGradient2918)" />
    <path
       sodipodi:type="star"
       style="fill:#ffff19;fill-opacity:1;fill-rule:nonzero"
       id="path11"
       inkscape:flatsided="true"
       sodipodi:sides="3"
       sodipodi:cx="461.54681"
       sodipodi:cy="81.720261"
       sodipodi:r1="42.211666"
       sodipodi:r2="21.105833"
       sodipodi:arg1="0.19204802"
       sodipodi:arg2="1.2392456"
       inkscape:rounded="0"
       inkscape:randomized="0"
       d="M 502.98244,89.777187 433.8515,113.5761 447.80651,41.807497 Z"
       inkscape:transform-center-x="-7.6708408"
       inkscape:transform-center-y="-4.8037847"
       transform="matrix(1.1165459,0,0,1.1924501,-478.63585,1104.7069)" />
  </g>
  <metadata
     id="metadata1">
    <rdf:RDF>
      <cc:Work>
        <dc:format>image/svg+xml</dc:format>
        <dc:type
           rdf:resource="http://purl.org/dc/dcmitype/StillImage" />
        <cc:license
           rdf:resource="http://creativecommons.org/licenses/publicdomain/" />
        <dc:publisher>
          <cc:Agent
             rdf:about="http://openclipart.org/">
            <dc:title>Openclipart</dc:title>
          </cc:Agent>
        </dc:publisher>
        <dc:title>Black witch hat</dc:title>
        <dc:date>2013-08-03T16:32:50</dc:date>
        <dc:description>Black witch hat</dc:description>
        <dc:source>https://openclipart.org/detail/181469/black-witch-hat-by-pippi2011-181469</dc:source>
        <dc:creator>
          <cc:Agent>
            <dc:title>Pippi2011</dc:title>
          </cc:Agent>
        </dc:creator>
        <dc:subject>
          <rdf:Bag>
            <rdf:li>Black witch hat</rdf:li>
            <rdf:li>Halloween</rdf:li>
            <rdf:li>Halloween costume</rdf:li>
            <rdf:li>Halloween hat</rdf:li>
            <rdf:li>Halloween witch hat</rdf:li>
            <rdf:li>witch hat</rdf:li>
          </rdf:Bag>
        </dc:subject>
      </cc:Work>
      <cc:License
         rdf:about="http://creativecommons.org/licenses/publicdomain/">
        <cc:permits
           rdf:resource="http://creativecommons.org/ns#Reproduction" />
        <cc:permits
           rdf:resource="http://creativecommons.org/ns#Distribution" />
        <cc:permits
           rdf:resource="http://creativecommons.org/ns#DerivativeWorks" />
      </cc:License>
    </rdf:RDF>
  </metadata>
</svg>
