<?xml version="1.0" encoding="utf-8" standalone="no"?>
<!DOCTYPE svg PUBLIC "-//W3C//DTD SVG 1.1//EN"
  "http://www.w3.org/Graphics/SVG/1.1/DTD/svg11.dtd">
<svg xmlns:xlink="http://www.w3.org/1999/xlink" width="1474.56pt" height="1474.56pt" viewBox="0 0 1474.56 1474.56" xmlns="http://www.w3.org/2000/svg" version="1.1">
 <metadata>
  <rdf:RDF xmlns:dc="http://purl.org/dc/elements/1.1/" xmlns:cc="http://creativecommons.org/ns#" xmlns:rdf="http://www.w3.org/1999/02/22-rdf-syntax-ns#">
   <cc:Work>
    <dc:type rdf:resource="http://purl.org/dc/dcmitype/StillImage"/>
    <dc:date>2026-06-24T13:11:18.943684</dc:date>
    <dc:format>image/svg+xml</dc:format>
    <dc:creator>
     <cc:Agent>
      <dc:title>Matplotlib v3.10.9, https://matplotlib.org/</dc:title>
     </cc:Agent>
    </dc:creator>
   </cc:Work>
  </rdf:RDF>
 </metadata>
 <defs>
  <style type="text/css">*{stroke-linejoin: round; stroke-linecap: butt}</style>
 </defs>
 <g id="figure_1">
  <g id="patch_1">
   <path d="M 0 1474.56 
L 1474.56 1474.56 
L 1474.56 0 
L 0 0 
z
" style="fill: #ffffff"/>
  </g>
  <g id="axes_1">
   <g id="line2d_1">
    <path d="M 1474.56 737.28 
L 1474.428762 723.369514 
L 1474.035093 709.463979 
L 1473.379135 695.568348 
L 1472.46112 681.687566 
L 1471.281376 667.826575 
L 1469.840322 653.99031 
L 1468.138472 640.183697 
L 1466.176431 626.411651 
L 1463.954898 612.679075 
L 1461.474664 598.990858 
L 1458.736612 585.351872 
L 1455.741716 571.766974 
L 1452.491042 558.241 
L 1448.985749 544.778765 
L 1445.227083 531.385061 
L 1441.216384 518.064658 
L 1436.955078 504.822297 
L 1432.444683 491.662692 
L 1427.686805 478.590529 
L 1422.683137 465.610461 
L 1417.435461 452.727109 
L 1411.945645 439.94506 
L 1406.215643 427.268864 
L 1400.247495 414.703035 
L 1394.043327 402.252045 
L 1387.605346 389.920327 
L 1380.935845 377.712272 
L 1374.037198 365.632225 
L 1366.911862 353.684488 
L 1359.562372 341.873313 
L 1351.991345 330.202905 
L 1344.201476 318.67742 
L 1336.19554 307.30096 
L 1327.976385 296.077576 
L 1319.546939 285.011263 
L 1310.910201 274.10596 
L 1302.069247 263.365551 
L 1293.027224 252.793859 
L 1283.787352 242.394647 
L 1274.352919 232.171617 
L 1264.727284 222.12841 
L 1254.913875 212.2686 
L 1244.916184 202.595698 
L 1234.737771 193.113147 
L 1224.38226 183.824323 
L 1213.853337 174.732533 
L 1203.154751 165.841014 
L 1192.29031 157.152931 
L 1181.263883 148.671378 
L 1170.079394 140.399373 
L 1158.740825 132.339861 
L 1147.252214 124.495713 
L 1135.617649 116.86972 
L 1123.841274 109.464597 
L 1111.92728 102.282981 
L 1099.879909 95.327428 
L 1087.703451 88.600415 
L 1075.402239 82.104336 
L 1062.980653 75.841505 
L 1050.443115 69.814149 
L 1037.794089 64.024417 
L 1025.038079 58.474368 
L 1012.179624 53.165978 
L 999.223303 48.101138 
L 986.173729 43.28165 
L 973.035546 38.70923 
L 959.813433 34.385506 
L 946.512097 30.312018 
L 933.136273 26.490215 
L 919.690722 22.921458 
L 906.180232 19.607017 
L 892.609612 16.548073 
L 878.983694 13.745715 
L 865.307328 11.20094 
L 851.585384 8.914654 
L 837.822746 6.887671 
L 824.024315 5.120713 
L 810.195002 3.614408 
L 796.33973 2.369293 
L 782.463433 1.385812 
L 768.57105 0.664314 
L 754.667528 0.205057 
L 740.757815 0.008203 
L 726.846864 0.073823 
L 712.939628 0.401893 
L 699.041057 0.992297 
L 685.156099 1.844825 
L 671.289697 2.959172 
L 657.446789 4.334943 
L 643.632302 5.971647 
L 629.851154 7.868702 
L 616.108251 10.025433 
L 602.408487 12.441071 
L 588.756737 15.114757 
L 575.157863 18.045538 
L 561.616706 21.232372 
L 548.138086 24.674124 
L 534.726801 28.369568 
L 521.387627 32.31739 
L 508.125312 36.516183 
L 494.944578 40.964452 
L 481.850117 45.660615 
L 468.846591 50.602999 
L 455.938629 55.789845 
L 443.130826 61.219306 
L 430.427742 66.889449 
L 417.8339 72.798256 
L 405.353783 78.943623 
L 392.991834 85.323363 
L 380.752454 91.935203 
L 368.64 98.77679 
L 356.658785 105.845689 
L 344.813073 113.139383 
L 333.107082 120.655276 
L 321.54498 128.390691 
L 310.130882 136.342874 
L 298.868852 144.508996 
L 287.762899 152.886148 
L 276.816978 161.471348 
L 266.034985 170.26154 
L 255.420758 179.253595 
L 244.978076 188.44431 
L 234.710657 197.830416 
L 224.622157 207.408568 
L 214.716166 217.175359 
L 204.996211 227.127311 
L 195.465753 237.26088 
L 186.128185 247.57246 
L 176.98683 258.058379 
L 168.044944 268.714904 
L 159.305709 279.538241 
L 150.772237 290.524538 
L 142.447566 301.669883 
L 134.33466 312.970308 
L 126.436406 324.42179 
L 118.755616 336.020252 
L 111.295026 347.761566 
L 104.05729 359.641551 
L 97.044986 371.655978 
L 90.260611 383.800569 
L 83.706578 396.071002 
L 77.385222 408.462907 
L 71.298793 420.971873 
L 65.449459 433.593448 
L 59.8393 446.323137 
L 54.470315 459.156408 
L 49.344415 472.088693 
L 44.463425 485.115389 
L 39.829082 498.231856 
L 35.443036 511.433427 
L 31.306849 524.7154 
L 27.421994 538.073048 
L 23.789853 551.501615 
L 20.411719 564.99632 
L 17.288795 578.55236 
L 14.422194 592.164907 
L 11.812934 605.829117 
L 9.461946 619.540124 
L 7.370066 633.293047 
L 5.538039 647.08299 
L 3.966517 660.905044 
L 2.65606 674.754288 
L 1.607134 688.625792 
L 0.820112 702.514616 
L 0.295275 716.415818 
L 0.03281 730.324447 
L 0.03281 744.235553 
L 0.295275 758.144182 
L 0.820112 772.045384 
L 1.607134 785.934208 
L 2.65606 799.805712 
L 3.966517 813.654956 
L 5.538039 827.47701 
L 7.370066 841.266953 
L 9.461946 855.019876 
L 11.812934 868.730883 
L 14.422194 882.395093 
L 17.288795 896.00764 
L 20.411719 909.56368 
L 23.789853 923.058385 
L 27.421994 936.486952 
L 31.306849 949.8446 
L 35.443036 963.126573 
L 39.829082 976.328144 
L 44.463425 989.444611 
L 49.344415 1002.471307 
L 54.470315 1015.403592 
L 59.8393 1028.236863 
L 65.449459 1040.966552 
L 71.298793 1053.588127 
L 77.385222 1066.097093 
L 83.706578 1078.488998 
L 90.260611 1090.759431 
L 97.044986 1102.904022 
L 104.05729 1114.918449 
L 111.295026 1126.798434 
L 118.755616 1138.539748 
L 126.436406 1150.13821 
L 134.33466 1161.589692 
L 142.447566 1172.890117 
L 150.772237 1184.035462 
L 159.305709 1195.021759 
L 168.044944 1205.845096 
L 176.98683 1216.501621 
L 186.128185 1226.98754 
L 195.465753 1237.29912 
L 204.996211 1247.432689 
L 214.716166 1257.384641 
L 224.622157 1267.151432 
L 234.710657 1276.729584 
L 244.978076 1286.11569 
L 255.420758 1295.306405 
L 266.034985 1304.29846 
L 276.816978 1313.088652 
L 287.762899 1321.673852 
L 298.868852 1330.051004 
L 310.130882 1338.217126 
L 321.54498 1346.169309 
L 333.107082 1353.904724 
L 344.813073 1361.420617 
L 356.658785 1368.714311 
L 368.64 1375.78321 
L 380.752454 1382.624797 
L 392.991834 1389.236637 
L 405.353783 1395.616377 
L 417.8339 1401.761744 
L 430.427742 1407.670551 
L 443.130826 1413.340694 
L 455.938629 1418.770155 
L 468.846591 1423.957001 
L 481.850117 1428.899385 
L 494.944578 1433.595548 
L 508.125312 1438.043817 
L 521.387627 1442.24261 
L 534.726801 1446.190432 
L 548.138086 1449.885876 
L 561.616706 1453.327628 
L 575.157863 1456.514462 
L 588.756737 1459.445243 
L 602.408487 1462.118929 
L 616.108251 1464.534567 
L 629.851154 1466.691298 
L 643.632302 1468.588353 
L 657.446789 1470.225057 
L 671.289697 1471.600828 
L 685.156099 1472.715175 
L 699.041057 1473.567703 
L 712.939628 1474.158107 
L 726.846864 1474.486177 
L 740.757815 1474.551797 
L 754.667528 1474.354943 
L 768.57105 1473.895686 
L 782.463433 1473.174188 
L 796.33973 1472.190707 
L 810.195002 1470.945592 
L 824.024315 1469.439287 
L 837.822746 1467.672329 
L 851.585384 1465.645346 
L 865.307328 1463.35906 
L 878.983694 1460.814285 
L 892.609612 1458.011927 
L 906.180232 1454.952983 
L 919.690722 1451.638542 
L 933.136273 1448.069785 
L 946.512097 1444.247982 
L 959.813433 1440.174494 
L 973.035546 1435.85077 
L 986.173729 1431.27835 
L 999.223303 1426.458862 
L 1012.179624 1421.394022 
L 1025.038079 1416.085632 
L 1037.794089 1410.535583 
L 1050.443115 1404.745851 
L 1062.980653 1398.718495 
L 1075.402239 1392.455664 
L 1087.703451 1385.959585 
L 1099.879909 1379.232572 
L 1111.92728 1372.277019 
L 1123.841274 1365.095403 
L 1135.617649 1357.69028 
L 1147.252214 1350.064287 
L 1158.740825 1342.220139 
L 1170.079394 1334.160627 
L 1181.263883 1325.888622 
L 1192.29031 1317.407069 
L 1203.154751 1308.718986 
L 1213.853337 1299.827467 
L 1224.38226 1290.735677 
L 1234.737771 1281.446853 
L 1244.916184 1271.964302 
L 1254.913875 1262.2914 
L 1264.727284 1252.43159 
L 1274.352919 1242.388383 
L 1283.787352 1232.165353 
L 1293.027224 1221.766141 
L 1302.069247 1211.194449 
L 1310.910201 1200.45404 
L 1319.546939 1189.548737 
L 1327.976385 1178.482424 
L 1336.19554 1167.25904 
L 1344.201476 1155.88258 
L 1351.991345 1144.357095 
L 1359.562372 1132.686687 
L 1366.911862 1120.875512 
L 1374.037198 1108.927775 
L 1380.935845 1096.847728 
L 1387.605346 1084.639673 
L 1394.043327 1072.307955 
L 1400.247495 1059.856965 
L 1406.215643 1047.291136 
L 1411.945645 1034.61494 
L 1417.435461 1021.832891 
L 1422.683137 1008.949539 
L 1427.686805 995.969471 
L 1432.444683 982.897308 
L 1436.955078 969.737703 
L 1441.216384 956.495342 
L 1445.227083 943.174939 
L 1448.985749 929.781235 
L 1452.491042 916.319 
L 1455.741716 902.793026 
L 1458.736612 889.208128 
L 1461.474664 875.569142 
L 1463.954898 861.880925 
L 1466.176431 848.148349 
L 1468.138472 834.376303 
L 1469.840322 820.56969 
L 1471.281376 806.733425 
L 1472.46112 792.872434 
L 1473.379135 778.991652 
L 1474.035093 765.096021 
L 1474.428762 751.190486 
L 1474.56 737.28 
L 1474.56 737.28 
" clip-path="url(#p864a420fb8)" style="fill: none; stroke: #000000; stroke-width: 1.5; stroke-linecap: square"/>
   </g>
   <g id="line2d_2">
    <path d="M 737.28 0 
L 98.77679 1105.92 
L 1375.78321 1105.92 
L 737.28 0 
" clip-path="url(#p864a420fb8)" style="fill: none; stroke: #000000; stroke-linecap: square"/>
   </g>
   <g id="line2d_3">
    <path d="M 737.28 1105.92 
L 539.971657 1447.668074 
L 934.588343 1447.668074 
L 737.28 1105.92 
" clip-path="url(#p864a420fb8)" style="fill: none; stroke: #000000; stroke-linecap: square"/>
   </g>
   <g id="line2d_4">
    <path d="M 1253.839948 211.211926 
L 1056.531605 552.96 
L 1451.14829 552.96 
L 1253.839948 211.211926 
" clip-path="url(#p864a420fb8)" style="fill: none; stroke: #000000; stroke-linecap: square"/>
   </g>
   <g id="line2d_5">
    <path d="M 220.720052 211.211926 
L 23.41171 552.96 
L 418.028395 552.96 
L 220.720052 211.211926 
" clip-path="url(#p864a420fb8)" style="fill: none; stroke: #000000; stroke-linecap: square"/>
   </g>
   <g id="line2d_6">
    <path d="M 460.004525 1105.92 
L 321.366787 1346.047606 
L 598.642262 1346.047606 
L 460.004525 1105.92 
" clip-path="url(#p864a420fb8)" style="fill: none; stroke: #000000; stroke-linecap: square"/>
   </g>
   <g id="line2d_7">
    <path d="M 1014.555475 1105.92 
L 875.917738 1346.047606 
L 1153.193213 1346.047606 
L 1014.555475 1105.92 
" clip-path="url(#p864a420fb8)" style="fill: none; stroke: #000000; stroke-linecap: square"/>
   </g>
   <g id="line2d_8">
    <path d="M 1333.80708 552.96 
L 1195.169343 793.087606 
L 1472.444818 793.087606 
L 1333.80708 552.96 
" clip-path="url(#p864a420fb8)" style="fill: none; stroke: #000000; stroke-linecap: square"/>
   </g>
   <g id="line2d_9">
    <path d="M 1056.531605 72.704789 
L 917.893867 312.832394 
L 1195.169343 312.832394 
L 1056.531605 72.704789 
" clip-path="url(#p864a420fb8)" style="fill: none; stroke: #000000; stroke-linecap: square"/>
   </g>
   <g id="line2d_10">
    <path d="M 418.028395 72.704789 
L 279.390657 312.832394 
L 556.666133 312.832394 
L 418.028395 72.704789 
" clip-path="url(#p864a420fb8)" style="fill: none; stroke: #000000; stroke-linecap: square"/>
   </g>
   <g id="line2d_11">
    <path d="M 140.75292 552.96 
L 2.115182 793.087606 
L 279.390657 793.087606 
L 140.75292 552.96 
" clip-path="url(#p864a420fb8)" style="fill: none; stroke: #000000; stroke-linecap: square"/>
   </g>
   <g id="line2d_12">
    <path d="M 292.360853 1105.92 
L 208.539018 1251.103678 
L 376.182689 1251.103678 
L 292.360853 1105.92 
" clip-path="url(#p864a420fb8)" style="fill: none; stroke: #000000; stroke-linecap: square"/>
   </g>
   <g id="line2d_13">
    <path d="M 510.071089 1346.047606 
L 465.785503 1422.752491 
L 554.356676 1422.752491 
L 510.071089 1346.047606 
" clip-path="url(#p864a420fb8)" style="fill: none; stroke: #000000; stroke-linecap: square"/>
   </g>
   <g id="line2d_14">
    <path d="M 1182.199147 1105.92 
L 1098.377311 1251.103678 
L 1266.020982 1251.103678 
L 1182.199147 1105.92 
" clip-path="url(#p864a420fb8)" style="fill: none; stroke: #000000; stroke-linecap: square"/>
   </g>
   <g id="line2d_15">
    <path d="M 964.488911 1346.047606 
L 920.203324 1422.752491 
L 1008.774497 1422.752491 
L 964.488911 1346.047606 
" clip-path="url(#p864a420fb8)" style="fill: none; stroke: #000000; stroke-linecap: square"/>
   </g>
   <g id="line2d_16">
    <path d="M 1362.813014 793.087606 
L 1278.991178 938.271284 
L 1446.634849 938.271284 
L 1362.813014 793.087606 
" clip-path="url(#p864a420fb8)" style="fill: none; stroke: #000000; stroke-linecap: square"/>
   </g>
   <g id="line2d_17">
    <path d="M 1422.378253 552.96 
L 1378.092667 629.664886 
L 1466.66384 629.664886 
L 1422.378253 552.96 
" clip-path="url(#p864a420fb8)" style="fill: none; stroke: #000000; stroke-linecap: square"/>
   </g>
   <g id="line2d_18">
    <path d="M 917.893867 22.465038 
L 834.072032 167.648716 
L 1001.715703 167.648716 
L 917.893867 22.465038 
" clip-path="url(#p864a420fb8)" style="fill: none; stroke: #000000; stroke-linecap: square"/>
   </g>
   <g id="line2d_19">
    <path d="M 1195.169343 159.422623 
L 1150.883756 236.127509 
L 1239.454929 236.127509 
L 1195.169343 159.422623 
" clip-path="url(#p864a420fb8)" style="fill: none; stroke: #000000; stroke-linecap: square"/>
   </g>
   <g id="line2d_20">
    <path d="M 556.666133 22.465038 
L 472.844297 167.648716 
L 640.487968 167.648716 
L 556.666133 22.465038 
" clip-path="url(#p864a420fb8)" style="fill: none; stroke: #000000; stroke-linecap: square"/>
   </g>
   <g id="line2d_21">
    <path d="M 279.390657 159.422623 
L 235.105071 236.127509 
L 323.676244 236.127509 
L 279.390657 159.422623 
" clip-path="url(#p864a420fb8)" style="fill: none; stroke: #000000; stroke-linecap: square"/>
   </g>
   <g id="line2d_22">
    <path d="M 111.746986 793.087606 
L 27.925151 938.271284 
L 195.568822 938.271284 
L 111.746986 793.087606 
" clip-path="url(#p864a420fb8)" style="fill: none; stroke: #000000; stroke-linecap: square"/>
   </g>
   <g id="line2d_23">
    <path d="M 52.181747 552.96 
L 7.89616 629.664886 
L 96.467333 629.664886 
L 52.181747 552.96 
" clip-path="url(#p864a420fb8)" style="fill: none; stroke: #000000; stroke-linecap: square"/>
   </g>
   <g id="line2d_24">
    <path d="M 199.252992 1105.92 
L 152.699061 1186.553774 
L 245.806922 1186.553774 
L 199.252992 1105.92 
" clip-path="url(#p864a420fb8)" style="fill: none; stroke: #000000; stroke-linecap: square"/>
   </g>
   <g id="line2d_25">
    <path d="M 307.711775 1251.103678 
L 273.476318 1310.401229 
L 341.947232 1310.401229 
L 307.711775 1251.103678 
" clip-path="url(#p864a420fb8)" style="fill: none; stroke: #000000; stroke-linecap: square"/>
   </g>
   <g id="line2d_26">
    <path d="M 447.032212 1346.047606 
L 415.512773 1400.640875 
L 478.551651 1400.640875 
L 447.032212 1346.047606 
" clip-path="url(#p864a420fb8)" style="fill: none; stroke: #000000; stroke-linecap: square"/>
   </g>
   <g id="line2d_27">
    <path d="M 532.033847 1422.752491 
L 520.872433 1442.084628 
L 543.195262 1442.084628 
L 532.033847 1422.752491 
" clip-path="url(#p864a420fb8)" style="fill: none; stroke: #000000; stroke-linecap: square"/>
   </g>
   <g id="line2d_28">
    <path d="M 1275.307008 1105.92 
L 1228.753078 1186.553774 
L 1321.860939 1186.553774 
L 1275.307008 1105.92 
" clip-path="url(#p864a420fb8)" style="fill: none; stroke: #000000; stroke-linecap: square"/>
   </g>
   <g id="line2d_29">
    <path d="M 1166.848225 1251.103678 
L 1132.612768 1310.401229 
L 1201.083682 1310.401229 
L 1166.848225 1251.103678 
" clip-path="url(#p864a420fb8)" style="fill: none; stroke: #000000; stroke-linecap: square"/>
   </g>
   <g id="line2d_30">
    <path d="M 1027.527788 1346.047606 
L 996.008349 1400.640875 
L 1059.047227 1400.640875 
L 1027.527788 1346.047606 
" clip-path="url(#p864a420fb8)" style="fill: none; stroke: #000000; stroke-linecap: square"/>
   </g>
   <g id="line2d_31">
    <path d="M 942.526153 1422.752491 
L 931.364738 1442.084628 
L 953.687567 1442.084628 
L 942.526153 1422.752491 
" clip-path="url(#p864a420fb8)" style="fill: none; stroke: #000000; stroke-linecap: square"/>
   </g>
   <g id="text_1">
    <!-- $\triangle_{R}$ -->
    <g transform="translate(562.728035 799.143904) scale(2.484153 -2.484153)">
     <defs>
      <path id="CMSY10-34" d="M 2982 4486 
C 2938 4563 2918 4608 2842 4608 
C 2771 4608 2752 4582 2701 4479 
L 429 249 
C 378 166 378 153 378 128 
C 378 0 512 0 608 0 
L 5082 0 
C 5190 0 5306 0 5306 128 
C 5306 160 5293 179 5267 230 
L 2982 4486 
z
M 2842 4209 
L 4966 256 
L 717 256 
L 2842 4209 
z
" transform="scale(0.015625)"/>
      <path id="CMMI12-52" d="M 2355 3917 
C 2413 4153 2438 4166 2688 4166 
L 3149 4166 
C 3699 4166 4109 4000 4109 3503 
C 4109 3177 3942 2240 2656 2240 
L 1933 2240 
L 2355 3917 
z
M 3245 2163 
C 4038 2335 4659 2846 4659 3394 
C 4659 3892 4154 4352 3264 4352 
L 1530 4352 
C 1402 4352 1344 4352 1344 4230 
C 1344 4166 1389 4166 1510 4166 
C 1894 4166 1894 4115 1894 4045 
C 1894 4032 1894 3994 1869 3898 
L 1005 475 
C 947 253 934 190 493 190 
C 346 190 301 190 301 69 
C 301 6 371 6 390 6 
C 506 6 640 19 762 19 
L 1517 19 
C 1632 19 1766 6 1882 6 
C 1933 6 2003 6 2003 126 
C 2003 190 1946 190 1850 190 
C 1459 190 1459 241 1459 304 
C 1459 310 1459 355 1472 405 
L 1901 2112 
L 2669 2112 
C 3277 2112 3392 1731 3392 1522 
C 3392 1426 3328 1179 3283 1014 
C 3213 723 3194 653 3194 532 
C 3194 82 3565 -128 3994 -128 
C 4512 -128 4736 501 4736 589 
C 4736 634 4704 653 4666 653 
C 4614 653 4602 615 4589 564 
C 4435 114 4173 0 4013 0 
C 3853 0 3750 69 3750 355 
C 3750 507 3827 1084 3834 1116 
C 3866 1350 3866 1376 3866 1426 
C 3866 1889 3488 2086 3245 2163 
z
" transform="scale(0.015625)"/>
     </defs>
     <use xlink:href="#CMSY10-34" transform="scale(0.996264)"/>
     <use xlink:href="#CMMI12-52" transform="translate(88.557026 -14.943915) scale(0.697382)"/>
    </g>
   </g>
   <g id="text_2">
    <!-- $\triangle_{RaB}$ -->
    <g transform="translate(651.957709 1352.323421) scale(0.745736 -0.745736)">
     <defs>
      <path id="CMMI12-61" d="M 1926 759 
C 1894 651 1894 638 1805 517 
C 1664 338 1382 64 1082 64 
C 819 64 672 300 672 676 
C 672 1028 870 1743 992 2011 
C 1210 2458 1510 2687 1760 2687 
C 2182 2687 2266 2164 2266 2113 
C 2266 2107 2246 2024 2240 2011 
L 1926 759 
z
M 2336 2394 
C 2266 2560 2093 2816 1760 2816 
C 1037 2816 256 1883 256 938 
C 256 306 627 -64 1062 -64 
C 1414 -64 1715 210 1894 421 
C 1958 44 2259 -64 2451 -64 
C 2643 -64 2797 51 2912 280 
C 3014 496 3104 885 3104 910 
C 3104 942 3078 968 3040 968 
C 2982 968 2976 936 2950 840 
C 2854 465 2733 64 2470 64 
C 2285 64 2272 229 2272 356 
C 2272 503 2291 573 2349 821 
C 2394 980 2426 1120 2477 1305 
C 2714 2260 2771 2489 2771 2528 
C 2771 2617 2701 2688 2605 2688 
C 2400 2688 2349 2464 2336 2388 
L 2336 2394 
z
" transform="scale(0.015625)"/>
      <path id="CMMI12-42" d="M 2342 3915 
C 2400 4153 2426 4166 2675 4166 
L 3507 4166 
C 4230 4166 4230 3547 4230 3489 
C 4230 2967 3712 2304 2867 2304 
L 1946 2304 
L 2342 3915 
z
M 3424 2252 
C 4122 2381 4755 2871 4755 3463 
C 4755 3966 4314 4352 3590 4352 
L 1536 4352 
C 1414 4352 1357 4352 1357 4230 
C 1357 4166 1414 4166 1510 4166 
C 1901 4166 1901 4114 1901 4043 
C 1901 4031 1901 3992 1875 3895 
L 1011 469 
C 954 248 941 185 493 185 
C 371 185 307 185 307 70 
C 307 0 346 0 474 0 
L 2669 0 
C 3648 0 4403 733 4403 1369 
C 4403 1886 3942 2201 3424 2252 
z
M 2515 185 
L 1651 185 
C 1562 185 1549 185 1510 191 
C 1440 198 1434 210 1434 261 
C 1434 305 1446 343 1459 399 
L 1907 2176 
L 3110 2176 
C 3866 2176 3866 1483 3866 1432 
C 3866 828 3309 185 2515 185 
z
" transform="scale(0.015625)"/>
     </defs>
     <use xlink:href="#CMSY10-34" transform="scale(0.996264)"/>
     <use xlink:href="#CMMI12-52" transform="translate(88.557026 -14.943915) scale(0.697382)"/>
     <use xlink:href="#CMMI12-61" transform="translate(141.106456 -14.943915) scale(0.697382)"/>
     <use xlink:href="#CMMI12-42" transform="translate(176.951802 -14.943915) scale(0.697382)"/>
    </g>
   </g>
   <g id="text_3">
    <!-- $\triangle_{RbB}$ -->
    <g transform="translate(1171.057768 457.615347) scale(0.745736 -0.745736)">
     <defs>
      <path id="CMMI12-62" d="M 1478 4255 
C 1485 4281 1498 4319 1498 4351 
C 1498 4416 1434 4416 1421 4416 
C 1414 4416 1184 4396 1069 4383 
C 960 4377 864 4364 749 4358 
C 595 4345 550 4339 550 4223 
C 550 4159 614 4159 678 4159 
C 1005 4159 1005 4103 1005 4040 
C 1005 3995 954 3812 928 3699 
L 774 3093 
C 710 2841 346 1392 320 1277 
C 288 1117 288 1008 288 925 
C 288 274 653 -64 1069 -64 
C 1811 -64 2579 887 2579 1813 
C 2579 2400 2246 2816 1766 2816 
C 1434 2816 1133 2541 1011 2413 
L 1478 4255 
z
M 1075 64 
C 870 64 646 217 646 715 
C 646 925 666 1047 781 1494 
C 800 1577 902 1985 928 2068 
C 941 2119 1318 2687 1754 2687 
C 2035 2687 2163 2407 2163 2075 
C 2163 1768 1984 1047 1824 715 
C 1664 370 1370 64 1075 64 
z
" transform="scale(0.015625)"/>
     </defs>
     <use xlink:href="#CMSY10-34" transform="scale(0.996264)"/>
     <use xlink:href="#CMMI12-52" transform="translate(88.557026 -14.943915) scale(0.697382)"/>
     <use xlink:href="#CMMI12-62" transform="translate(141.106456 -14.943915) scale(0.697382)"/>
     <use xlink:href="#CMMI12-42" transform="translate(170.139443 -14.943915) scale(0.697382)"/>
    </g>
   </g>
   <g id="text_4">
    <!-- $\triangle_{RcB}$ -->
    <g transform="translate(137.80545 457.615347) scale(0.745736 -0.745736)">
     <defs>
      <path id="CMMI12-63" d="M 2502 2432 
C 2381 2432 2323 2432 2234 2355 
C 2195 2323 2125 2227 2125 2124 
C 2125 1996 2221 1919 2342 1919 
C 2496 1919 2669 2047 2669 2303 
C 2669 2591 2374 2816 1933 2816 
C 1094 2816 256 1932 256 1011 
C 256 446 602 -64 1254 -64 
C 2125 -64 2675 622 2675 706 
C 2675 745 2637 777 2611 777 
C 2592 777 2586 771 2528 712 
C 2118 161 1510 64 1267 64 
C 826 64 685 453 685 777 
C 685 1004 794 1634 1024 2073 
C 1190 2374 1536 2687 1939 2687 
C 2022 2687 2374 2676 2502 2432 
z
" transform="scale(0.015625)"/>
     </defs>
     <use xlink:href="#CMSY10-34" transform="scale(0.996264)"/>
     <use xlink:href="#CMMI12-52" transform="translate(88.557026 -14.943915) scale(0.697382)"/>
     <use xlink:href="#CMMI12-63" transform="translate(141.106456 -14.943915) scale(0.697382)"/>
     <use xlink:href="#CMMI12-42" transform="translate(170.494587 -14.943915) scale(0.697382)"/>
    </g>
   </g>
   <g id="text_5">
    <!-- $\triangle_{RaBlH}$ -->
    <g transform="translate(382.063785 1278.49547) scale(0.501554 -0.501554)">
     <defs>
      <path id="CMMI12-6c" d="M 1626 4255 
C 1632 4281 1645 4319 1645 4351 
C 1645 4416 1581 4416 1568 4416 
C 1562 4416 1331 4396 1216 4383 
C 1107 4377 1011 4364 896 4358 
C 742 4345 698 4339 698 4223 
C 698 4159 762 4159 826 4159 
C 1152 4159 1152 4102 1152 4039 
C 1152 4013 1152 4001 1120 3886 
L 326 731 
C 307 661 294 610 294 509 
C 294 191 531 -64 858 -64 
C 1069 -64 1210 76 1312 273 
C 1421 483 1510 884 1510 909 
C 1510 941 1485 967 1446 967 
C 1389 967 1382 935 1357 839 
C 1242 401 1126 64 870 64 
C 678 64 678 267 678 356 
C 678 382 678 515 723 693 
L 1626 4255 
z
" transform="scale(0.015625)"/>
      <path id="CMMI12-48" d="M 4787 3886 
C 4845 4102 4858 4166 5312 4166 
C 5427 4166 5491 4166 5491 4281 
C 5491 4352 5434 4352 5395 4352 
C 5280 4352 5146 4339 5024 4339 
L 4269 4339 
C 4147 4339 4013 4352 3891 4352 
C 3846 4352 3770 4352 3770 4230 
C 3770 4166 3814 4166 3936 4166 
C 4320 4166 4320 4115 4320 4045 
C 4320 4032 4320 3994 4294 3899 
L 3904 2361 
L 1971 2361 
L 2355 3886 
C 2413 4102 2426 4166 2880 4166 
C 2995 4166 3059 4166 3059 4281 
C 3059 4352 3002 4352 2963 4352 
C 2848 4352 2714 4339 2592 4339 
L 1837 4339 
C 1715 4339 1581 4352 1459 4352 
C 1414 4352 1338 4352 1338 4230 
C 1338 4166 1382 4166 1504 4166 
C 1888 4166 1888 4115 1888 4045 
C 1888 4032 1888 3994 1862 3899 
L 998 472 
C 941 249 928 185 486 185 
C 339 185 294 185 294 64 
C 294 0 365 0 384 0 
C 499 0 634 12 755 12 
L 1510 12 
C 1632 12 1766 0 1888 0 
C 1939 0 2010 0 2010 121 
C 2010 185 1952 185 1856 185 
C 1466 185 1466 236 1466 300 
C 1466 306 1466 351 1478 402 
L 1920 2176 
L 3859 2176 
C 3750 1755 3424 421 3411 383 
C 3341 191 3238 191 2861 185 
C 2784 185 2726 185 2726 64 
C 2726 0 2797 0 2816 0 
C 2931 0 3066 12 3187 12 
L 3942 12 
C 4064 12 4198 0 4320 0 
C 4371 0 4442 0 4442 121 
C 4442 185 4384 185 4288 185 
C 3898 185 3898 236 3898 300 
C 3898 306 3898 351 3910 402 
L 4787 3886 
z
" transform="scale(0.015625)"/>
     </defs>
     <use xlink:href="#CMSY10-34" transform="scale(0.996264)"/>
     <use xlink:href="#CMMI12-52" transform="translate(88.557026 -14.943915) scale(0.697382)"/>
     <use xlink:href="#CMMI12-61" transform="translate(141.106456 -14.943915) scale(0.697382)"/>
     <use xlink:href="#CMMI12-42" transform="translate(176.951802 -14.943915) scale(0.697382)"/>
     <use xlink:href="#CMMI12-6c" transform="translate(232.346429 -14.943915) scale(0.697382)"/>
     <use xlink:href="#CMMI12-48" transform="translate(254.220212 -14.943915) scale(0.697382)"/>
    </g>
   </g>
   <g id="text_6">
    <!-- $\triangle_{RaBrH}$ -->
    <g transform="translate(933.907474 1278.49547) scale(0.501554 -0.501554)">
     <defs>
      <path id="CMMI12-72" d="M 2490 2633 
C 2291 2598 2189 2457 2189 2316 
C 2189 2163 2310 2111 2400 2111 
C 2579 2111 2726 2265 2726 2457 
C 2726 2651 2528 2816 2208 2816 
C 1952 2816 1658 2700 1389 2335 
C 1344 2660 1088 2816 832 2816 
C 582 2816 454 2642 378 2508 
C 269 2278 173 1892 173 1860 
C 173 1834 198 1801 243 1801 
C 294 1801 301 1808 339 1957 
C 435 2342 557 2687 813 2687 
C 966 2687 1011 2604 1011 2419 
C 1011 2278 947 2028 902 1827 
L 723 1130 
C 698 1007 627 716 595 600 
C 550 432 480 128 480 96 
C 480 6 550 -64 646 -64 
C 717 -64 838 -20 877 109 
C 896 160 1133 1136 1171 1285 
C 1203 1427 1242 1562 1274 1705 
C 1299 1795 1325 1898 1344 1982 
C 1363 2040 1536 2355 1696 2495 
C 1773 2566 1939 2687 2202 2687 
C 2304 2687 2406 2674 2490 2633 
z
" transform="scale(0.015625)"/>
     </defs>
     <use xlink:href="#CMSY10-34" transform="scale(0.996264)"/>
     <use xlink:href="#CMMI12-52" transform="translate(88.557026 -14.943915) scale(0.697382)"/>
     <use xlink:href="#CMMI12-61" transform="translate(141.106456 -14.943915) scale(0.697382)"/>
     <use xlink:href="#CMMI12-42" transform="translate(176.951802 -14.943915) scale(0.697382)"/>
     <use xlink:href="#CMMI12-72" transform="translate(232.346429 -14.943915) scale(0.697382)"/>
     <use xlink:href="#CMMI12-48" transform="translate(265.015697 -14.943915) scale(0.697382)"/>
    </g>
   </g>
   <g id="text_7">
    <!-- $\triangle_{RbBlH}$ -->
    <g transform="translate(1257.574725 725.53547) scale(0.501554 -0.501554)">
     <use xlink:href="#CMSY10-34" transform="scale(0.996264)"/>
     <use xlink:href="#CMMI12-52" transform="translate(88.557026 -14.943915) scale(0.697382)"/>
     <use xlink:href="#CMMI12-62" transform="translate(141.106456 -14.943915) scale(0.697382)"/>
     <use xlink:href="#CMMI12-42" transform="translate(170.139443 -14.943915) scale(0.697382)"/>
     <use xlink:href="#CMMI12-6c" transform="translate(225.534069 -14.943915) scale(0.697382)"/>
     <use xlink:href="#CMMI12-48" transform="translate(247.407853 -14.943915) scale(0.697382)"/>
    </g>
   </g>
   <g id="text_8">
    <!-- $\triangle_{RbBrH}$ -->
    <g transform="translate(977.591987 245.280259) scale(0.501554 -0.501554)">
     <use xlink:href="#CMSY10-34" transform="scale(0.996264)"/>
     <use xlink:href="#CMMI12-52" transform="translate(88.557026 -14.943915) scale(0.697382)"/>
     <use xlink:href="#CMMI12-62" transform="translate(141.106456 -14.943915) scale(0.697382)"/>
     <use xlink:href="#CMMI12-42" transform="translate(170.139443 -14.943915) scale(0.697382)"/>
     <use xlink:href="#CMMI12-72" transform="translate(225.534069 -14.943915) scale(0.697382)"/>
     <use xlink:href="#CMMI12-48" transform="translate(258.203338 -14.943915) scale(0.697382)"/>
    </g>
   </g>
   <g id="text_9">
    <!-- $\triangle_{RcBlH}$ -->
    <g transform="translate(341.706973 245.280259) scale(0.501554 -0.501554)">
     <use xlink:href="#CMSY10-34" transform="scale(0.996264)"/>
     <use xlink:href="#CMMI12-52" transform="translate(88.557026 -14.943915) scale(0.697382)"/>
     <use xlink:href="#CMMI12-63" transform="translate(141.106456 -14.943915) scale(0.697382)"/>
     <use xlink:href="#CMMI12-42" transform="translate(170.494587 -14.943915) scale(0.697382)"/>
     <use xlink:href="#CMMI12-6c" transform="translate(225.889213 -14.943915) scale(0.697382)"/>
     <use xlink:href="#CMMI12-48" transform="translate(247.762997 -14.943915) scale(0.697382)"/>
    </g>
   </g>
   <g id="text_10">
    <!-- $\triangle_{RcBrH}$ -->
    <g transform="translate(61.724235 725.53547) scale(0.501554 -0.501554)">
     <use xlink:href="#CMSY10-34" transform="scale(0.996264)"/>
     <use xlink:href="#CMMI12-52" transform="translate(88.557026 -14.943915) scale(0.697382)"/>
     <use xlink:href="#CMMI12-63" transform="translate(141.106456 -14.943915) scale(0.697382)"/>
     <use xlink:href="#CMMI12-42" transform="translate(170.494587 -14.943915) scale(0.697382)"/>
     <use xlink:href="#CMMI12-72" transform="translate(225.889213 -14.943915) scale(0.697382)"/>
     <use xlink:href="#CMMI12-48" transform="translate(258.558482 -14.943915) scale(0.697382)"/>
    </g>
   </g>
   <g id="text_11">
    <!-- $\triangle_{RaBlHH}$ -->
    <g transform="translate(240.653359 1209.618048) scale(0.277429 -0.277429)">
     <use xlink:href="#CMSY10-34" transform="scale(0.996264)"/>
     <use xlink:href="#CMMI12-52" transform="translate(88.557026 -14.943915) scale(0.697382)"/>
     <use xlink:href="#CMMI12-61" transform="translate(141.106456 -14.943915) scale(0.697382)"/>
     <use xlink:href="#CMMI12-42" transform="translate(176.951802 -14.943915) scale(0.697382)"/>
     <use xlink:href="#CMMI12-6c" transform="translate(232.346429 -14.943915) scale(0.697382)"/>
     <use xlink:href="#CMMI12-48" transform="translate(254.220212 -14.943915) scale(0.697382)"/>
     <use xlink:href="#CMMI12-48" transform="translate(316.18517 -14.943915) scale(0.697382)"/>
    </g>
   </g>
   <g id="text_12">
    <!-- $\triangle_{RaBlHV}$ -->
    <g transform="translate(486.960321 1400.247469) scale(0.122991 -0.122991)">
     <defs>
      <path id="CMMI12-56" d="M 3962 3644 
C 4179 3987 4378 4140 4704 4166 
C 4768 4172 4819 4172 4819 4287 
C 4819 4313 4806 4352 4749 4352 
C 4634 4352 4358 4339 4243 4339 
C 4058 4339 3866 4352 3686 4352 
C 3635 4352 3571 4352 3571 4230 
C 3571 4172 3629 4166 3654 4166 
C 3891 4146 3917 4032 3917 3956 
C 3917 3860 3827 3714 3821 3708 
L 1811 540 
L 1363 3968 
C 1363 4153 1696 4166 1766 4166 
C 1862 4166 1920 4166 1920 4287 
C 1920 4352 1850 4352 1830 4352 
C 1722 4352 1594 4339 1485 4339 
L 1126 4339 
C 659 4339 467 4352 461 4352 
C 422 4352 346 4352 346 4236 
C 346 4166 390 4166 493 4166 
C 819 4166 838 4108 858 3949 
L 1370 25 
C 1389 -109 1389 -128 1478 -128 
C 1555 -128 1587 -109 1651 -7 
L 3962 3644 
z
" transform="scale(0.015625)"/>
     </defs>
     <use xlink:href="#CMSY10-34" transform="scale(0.996264)"/>
     <use xlink:href="#CMMI12-52" transform="translate(88.557026 -14.943915) scale(0.697382)"/>
     <use xlink:href="#CMMI12-61" transform="translate(141.106456 -14.943915) scale(0.697382)"/>
     <use xlink:href="#CMMI12-42" transform="translate(176.951802 -14.943915) scale(0.697382)"/>
     <use xlink:href="#CMMI12-6c" transform="translate(232.346429 -14.943915) scale(0.697382)"/>
     <use xlink:href="#CMMI12-48" transform="translate(254.220212 -14.943915) scale(0.697382)"/>
     <use xlink:href="#CMMI12-56" transform="translate(316.18517 -14.943915) scale(0.697382)"/>
    </g>
   </g>
   <g id="text_13">
    <!-- $\triangle_{RaBrHH}$ -->
    <g transform="translate(1128.994155 1209.618048) scale(0.277429 -0.277429)">
     <use xlink:href="#CMSY10-34" transform="scale(0.996264)"/>
     <use xlink:href="#CMMI12-52" transform="translate(88.557026 -14.943915) scale(0.697382)"/>
     <use xlink:href="#CMMI12-61" transform="translate(141.106456 -14.943915) scale(0.697382)"/>
     <use xlink:href="#CMMI12-42" transform="translate(176.951802 -14.943915) scale(0.697382)"/>
     <use xlink:href="#CMMI12-72" transform="translate(232.346429 -14.943915) scale(0.697382)"/>
     <use xlink:href="#CMMI12-48" transform="translate(265.015697 -14.943915) scale(0.697382)"/>
     <use xlink:href="#CMMI12-48" transform="translate(326.980655 -14.943915) scale(0.697382)"/>
    </g>
   </g>
   <g id="text_14">
    <!-- $\triangle_{RaBrHV}$ -->
    <g transform="translate(940.60628 1400.247469) scale(0.122991 -0.122991)">
     <use xlink:href="#CMSY10-34" transform="scale(0.996264)"/>
     <use xlink:href="#CMMI12-52" transform="translate(88.557026 -14.943915) scale(0.697382)"/>
     <use xlink:href="#CMMI12-61" transform="translate(141.106456 -14.943915) scale(0.697382)"/>
     <use xlink:href="#CMMI12-42" transform="translate(176.951802 -14.943915) scale(0.697382)"/>
     <use xlink:href="#CMMI12-72" transform="translate(232.346429 -14.943915) scale(0.697382)"/>
     <use xlink:href="#CMMI12-48" transform="translate(265.015697 -14.943915) scale(0.697382)"/>
     <use xlink:href="#CMMI12-56" transform="translate(326.980655 -14.943915) scale(0.697382)"/>
    </g>
   </g>
   <g id="text_15">
    <!-- $\triangle_{RbBlHH}$ -->
    <g transform="translate(1312.050492 896.785653) scale(0.277429 -0.277429)">
     <use xlink:href="#CMSY10-34" transform="scale(0.996264)"/>
     <use xlink:href="#CMMI12-52" transform="translate(88.557026 -14.943915) scale(0.697382)"/>
     <use xlink:href="#CMMI12-62" transform="translate(141.106456 -14.943915) scale(0.697382)"/>
     <use xlink:href="#CMMI12-42" transform="translate(170.139443 -14.943915) scale(0.697382)"/>
     <use xlink:href="#CMMI12-6c" transform="translate(225.534069 -14.943915) scale(0.697382)"/>
     <use xlink:href="#CMMI12-48" transform="translate(247.407853 -14.943915) scale(0.697382)"/>
     <use xlink:href="#CMMI12-48" transform="translate(309.372811 -14.943915) scale(0.697382)"/>
    </g>
   </g>
   <g id="text_16">
    <!-- $\triangle_{RbBlHV}$ -->
    <g transform="translate(1399.738535 607.159864) scale(0.122991 -0.122991)">
     <use xlink:href="#CMSY10-34" transform="scale(0.996264)"/>
     <use xlink:href="#CMMI12-52" transform="translate(88.557026 -14.943915) scale(0.697382)"/>
     <use xlink:href="#CMMI12-62" transform="translate(141.106456 -14.943915) scale(0.697382)"/>
     <use xlink:href="#CMMI12-42" transform="translate(170.139443 -14.943915) scale(0.697382)"/>
     <use xlink:href="#CMMI12-6c" transform="translate(225.534069 -14.943915) scale(0.697382)"/>
     <use xlink:href="#CMMI12-48" transform="translate(247.407853 -14.943915) scale(0.697382)"/>
     <use xlink:href="#CMMI12-56" transform="translate(309.372811 -14.943915) scale(0.697382)"/>
    </g>
   </g>
   <g id="text_17">
    <!-- $\triangle_{RbBrHH}$ -->
    <g transform="translate(865.633849 126.163086) scale(0.277429 -0.277429)">
     <use xlink:href="#CMSY10-34" transform="scale(0.996264)"/>
     <use xlink:href="#CMMI12-52" transform="translate(88.557026 -14.943915) scale(0.697382)"/>
     <use xlink:href="#CMMI12-62" transform="translate(141.106456 -14.943915) scale(0.697382)"/>
     <use xlink:href="#CMMI12-42" transform="translate(170.139443 -14.943915) scale(0.697382)"/>
     <use xlink:href="#CMMI12-72" transform="translate(225.534069 -14.943915) scale(0.697382)"/>
     <use xlink:href="#CMMI12-48" transform="translate(258.203338 -14.943915) scale(0.697382)"/>
     <use xlink:href="#CMMI12-48" transform="translate(320.168296 -14.943915) scale(0.697382)"/>
    </g>
   </g>
   <g id="text_18">
    <!-- $\triangle_{RbBrHV}$ -->
    <g transform="translate(1171.757762 213.622487) scale(0.122991 -0.122991)">
     <use xlink:href="#CMSY10-34" transform="scale(0.996264)"/>
     <use xlink:href="#CMMI12-52" transform="translate(88.557026 -14.943915) scale(0.697382)"/>
     <use xlink:href="#CMMI12-62" transform="translate(141.106456 -14.943915) scale(0.697382)"/>
     <use xlink:href="#CMMI12-42" transform="translate(170.139443 -14.943915) scale(0.697382)"/>
     <use xlink:href="#CMMI12-72" transform="translate(225.534069 -14.943915) scale(0.697382)"/>
     <use xlink:href="#CMMI12-48" transform="translate(258.203338 -14.943915) scale(0.697382)"/>
     <use xlink:href="#CMMI12-56" transform="translate(320.168296 -14.943915) scale(0.697382)"/>
    </g>
   </g>
   <g id="text_19">
    <!-- $\triangle_{RcBlHH}$ -->
    <g transform="translate(505.85435 126.163086) scale(0.277429 -0.277429)">
     <use xlink:href="#CMSY10-34" transform="scale(0.996264)"/>
     <use xlink:href="#CMMI12-52" transform="translate(88.557026 -14.943915) scale(0.697382)"/>
     <use xlink:href="#CMMI12-63" transform="translate(141.106456 -14.943915) scale(0.697382)"/>
     <use xlink:href="#CMMI12-42" transform="translate(170.494587 -14.943915) scale(0.697382)"/>
     <use xlink:href="#CMMI12-6c" transform="translate(225.889213 -14.943915) scale(0.697382)"/>
     <use xlink:href="#CMMI12-48" transform="translate(247.762997 -14.943915) scale(0.697382)"/>
     <use xlink:href="#CMMI12-48" transform="translate(309.727955 -14.943915) scale(0.697382)"/>
    </g>
   </g>
   <g id="text_20">
    <!-- $\triangle_{RcBlHV}$ -->
    <g transform="translate(256.726624 213.622487) scale(0.122991 -0.122991)">
     <use xlink:href="#CMSY10-34" transform="scale(0.996264)"/>
     <use xlink:href="#CMMI12-52" transform="translate(88.557026 -14.943915) scale(0.697382)"/>
     <use xlink:href="#CMMI12-63" transform="translate(141.106456 -14.943915) scale(0.697382)"/>
     <use xlink:href="#CMMI12-42" transform="translate(170.494587 -14.943915) scale(0.697382)"/>
     <use xlink:href="#CMMI12-6c" transform="translate(225.889213 -14.943915) scale(0.697382)"/>
     <use xlink:href="#CMMI12-48" transform="translate(247.762997 -14.943915) scale(0.697382)"/>
     <use xlink:href="#CMMI12-56" transform="translate(309.727955 -14.943915) scale(0.697382)"/>
    </g>
   </g>
   <g id="text_21">
    <!-- $\triangle_{RcBrHH}$ -->
    <g transform="translate(59.437706 896.785653) scale(0.277429 -0.277429)">
     <use xlink:href="#CMSY10-34" transform="scale(0.996264)"/>
     <use xlink:href="#CMMI12-52" transform="translate(88.557026 -14.943915) scale(0.697382)"/>
     <use xlink:href="#CMMI12-63" transform="translate(141.106456 -14.943915) scale(0.697382)"/>
     <use xlink:href="#CMMI12-42" transform="translate(170.494587 -14.943915) scale(0.697382)"/>
     <use xlink:href="#CMMI12-72" transform="translate(225.889213 -14.943915) scale(0.697382)"/>
     <use xlink:href="#CMMI12-48" transform="translate(258.558482 -14.943915) scale(0.697382)"/>
     <use xlink:href="#CMMI12-48" transform="translate(320.52344 -14.943915) scale(0.697382)"/>
    </g>
   </g>
   <g id="text_22">
    <!-- $\triangle_{RcBrHV}$ -->
    <g transform="translate(28.745851 607.159864) scale(0.122991 -0.122991)">
     <use xlink:href="#CMSY10-34" transform="scale(0.996264)"/>
     <use xlink:href="#CMMI12-52" transform="translate(88.557026 -14.943915) scale(0.697382)"/>
     <use xlink:href="#CMMI12-63" transform="translate(141.106456 -14.943915) scale(0.697382)"/>
     <use xlink:href="#CMMI12-42" transform="translate(170.494587 -14.943915) scale(0.697382)"/>
     <use xlink:href="#CMMI12-72" transform="translate(225.889213 -14.943915) scale(0.697382)"/>
     <use xlink:href="#CMMI12-48" transform="translate(258.558482 -14.943915) scale(0.697382)"/>
     <use xlink:href="#CMMI12-56" transform="translate(320.52344 -14.943915) scale(0.697382)"/>
    </g>
   </g>
   <g id="text_23">
    <!-- $\triangle_{RaBlHHH}$ -->
    <g transform="translate(171.241017 1162.710756) scale(0.121851 -0.121851)">
     <use xlink:href="#CMSY10-34" transform="scale(0.996264)"/>
     <use xlink:href="#CMMI12-52" transform="translate(88.557026 -14.943915) scale(0.697382)"/>
     <use xlink:href="#CMMI12-61" transform="translate(141.106456 -14.943915) scale(0.697382)"/>
     <use xlink:href="#CMMI12-42" transform="translate(176.951802 -14.943915) scale(0.697382)"/>
     <use xlink:href="#CMMI12-6c" transform="translate(232.346429 -14.943915) scale(0.697382)"/>
     <use xlink:href="#CMMI12-48" transform="translate(254.220212 -14.943915) scale(0.697382)"/>
     <use xlink:href="#CMMI12-48" transform="translate(316.18517 -14.943915) scale(0.697382)"/>
     <use xlink:href="#CMMI12-48" transform="translate(378.150129 -14.943915) scale(0.697382)"/>
    </g>
   </g>
   <g id="text_24">
    <!-- $\triangle_{RaBlHHV}$ -->
    <g transform="translate(287.096266 1292.4718) scale(0.073732 -0.073732)">
     <use xlink:href="#CMSY10-34" transform="scale(0.996264)"/>
     <use xlink:href="#CMMI12-52" transform="translate(88.557026 -14.943915) scale(0.697382)"/>
     <use xlink:href="#CMMI12-61" transform="translate(141.106456 -14.943915) scale(0.697382)"/>
     <use xlink:href="#CMMI12-42" transform="translate(176.951802 -14.943915) scale(0.697382)"/>
     <use xlink:href="#CMMI12-6c" transform="translate(232.346429 -14.943915) scale(0.697382)"/>
     <use xlink:href="#CMMI12-48" transform="translate(254.220212 -14.943915) scale(0.697382)"/>
     <use xlink:href="#CMMI12-48" transform="translate(316.18517 -14.943915) scale(0.697382)"/>
     <use xlink:href="#CMMI12-56" transform="translate(378.150129 -14.943915) scale(0.697382)"/>
    </g>
   </g>
   <g id="text_25">
    <!-- $\triangle_{RaBlHVH}$ -->
    <g transform="translate(428.694005 1384.015294) scale(0.063123 -0.063123)">
     <use xlink:href="#CMSY10-34" transform="scale(0.996264)"/>
     <use xlink:href="#CMMI12-52" transform="translate(88.557026 -14.943915) scale(0.697382)"/>
     <use xlink:href="#CMMI12-61" transform="translate(141.106456 -14.943915) scale(0.697382)"/>
     <use xlink:href="#CMMI12-42" transform="translate(176.951802 -14.943915) scale(0.697382)"/>
     <use xlink:href="#CMMI12-6c" transform="translate(232.346429 -14.943915) scale(0.697382)"/>
     <use xlink:href="#CMMI12-48" transform="translate(254.220212 -14.943915) scale(0.697382)"/>
     <use xlink:href="#CMMI12-56" transform="translate(316.18517 -14.943915) scale(0.697382)"/>
     <use xlink:href="#CMMI12-48" transform="translate(371.168041 -14.943915) scale(0.697382)"/>
    </g>
   </g>
   <g id="text_26">
    <!-- $\triangle_{RaBlHVV}$ -->
    <g transform="translate(529.162694 1435.886882) scale(0.01 -0.01)">
     <use xlink:href="#CMSY10-34" transform="scale(0.996264)"/>
     <use xlink:href="#CMMI12-52" transform="translate(88.557026 -14.943915) scale(0.697382)"/>
     <use xlink:href="#CMMI12-61" transform="translate(141.106456 -14.943915) scale(0.697382)"/>
     <use xlink:href="#CMMI12-42" transform="translate(176.951802 -14.943915) scale(0.697382)"/>
     <use xlink:href="#CMMI12-6c" transform="translate(232.346429 -14.943915) scale(0.697382)"/>
     <use xlink:href="#CMMI12-48" transform="translate(254.220212 -14.943915) scale(0.697382)"/>
     <use xlink:href="#CMMI12-56" transform="translate(316.18517 -14.943915) scale(0.697382)"/>
     <use xlink:href="#CMMI12-56" transform="translate(371.168041 -14.943915) scale(0.697382)"/>
    </g>
   </g>
   <g id="text_27">
    <!-- $\triangle_{RaBrHHH}$ -->
    <g transform="translate(1246.530323 1162.710756) scale(0.121851 -0.121851)">
     <use xlink:href="#CMSY10-34" transform="scale(0.996264)"/>
     <use xlink:href="#CMMI12-52" transform="translate(88.557026 -14.943915) scale(0.697382)"/>
     <use xlink:href="#CMMI12-61" transform="translate(141.106456 -14.943915) scale(0.697382)"/>
     <use xlink:href="#CMMI12-42" transform="translate(176.951802 -14.943915) scale(0.697382)"/>
     <use xlink:href="#CMMI12-72" transform="translate(232.346429 -14.943915) scale(0.697382)"/>
     <use xlink:href="#CMMI12-48" transform="translate(265.015697 -14.943915) scale(0.697382)"/>
     <use xlink:href="#CMMI12-48" transform="translate(326.980655 -14.943915) scale(0.697382)"/>
     <use xlink:href="#CMMI12-48" transform="translate(388.945613 -14.943915) scale(0.697382)"/>
    </g>
   </g>
   <g id="text_28">
    <!-- $\triangle_{RaBrHHV}$ -->
    <g transform="translate(1145.652448 1292.4718) scale(0.073732 -0.073732)">
     <use xlink:href="#CMSY10-34" transform="scale(0.996264)"/>
     <use xlink:href="#CMMI12-52" transform="translate(88.557026 -14.943915) scale(0.697382)"/>
     <use xlink:href="#CMMI12-61" transform="translate(141.106456 -14.943915) scale(0.697382)"/>
     <use xlink:href="#CMMI12-42" transform="translate(176.951802 -14.943915) scale(0.697382)"/>
     <use xlink:href="#CMMI12-72" transform="translate(232.346429 -14.943915) scale(0.697382)"/>
     <use xlink:href="#CMMI12-48" transform="translate(265.015697 -14.943915) scale(0.697382)"/>
     <use xlink:href="#CMMI12-48" transform="translate(326.980655 -14.943915) scale(0.697382)"/>
     <use xlink:href="#CMMI12-56" transform="translate(388.945613 -14.943915) scale(0.697382)"/>
    </g>
   </g>
   <g id="text_29">
    <!-- $\triangle_{RaBrHVH}$ -->
    <g transform="translate(1008.69281 1384.015294) scale(0.063123 -0.063123)">
     <use xlink:href="#CMSY10-34" transform="scale(0.996264)"/>
     <use xlink:href="#CMMI12-52" transform="translate(88.557026 -14.943915) scale(0.697382)"/>
     <use xlink:href="#CMMI12-61" transform="translate(141.106456 -14.943915) scale(0.697382)"/>
     <use xlink:href="#CMMI12-42" transform="translate(176.951802 -14.943915) scale(0.697382)"/>
     <use xlink:href="#CMMI12-72" transform="translate(232.346429 -14.943915) scale(0.697382)"/>
     <use xlink:href="#CMMI12-48" transform="translate(265.015697 -14.943915) scale(0.697382)"/>
     <use xlink:href="#CMMI12-56" transform="translate(326.980655 -14.943915) scale(0.697382)"/>
     <use xlink:href="#CMMI12-48" transform="translate(381.963526 -14.943915) scale(0.697382)"/>
    </g>
   </g>
   <g id="text_30">
    <!-- $\triangle_{RaBrHVV}$ -->
    <g transform="translate(939.576308 1435.886882) scale(0.01 -0.01)">
     <use xlink:href="#CMSY10-34" transform="scale(0.996264)"/>
     <use xlink:href="#CMMI12-52" transform="translate(88.557026 -14.943915) scale(0.697382)"/>
     <use xlink:href="#CMMI12-61" transform="translate(141.106456 -14.943915) scale(0.697382)"/>
     <use xlink:href="#CMMI12-42" transform="translate(176.951802 -14.943915) scale(0.697382)"/>
     <use xlink:href="#CMMI12-72" transform="translate(232.346429 -14.943915) scale(0.697382)"/>
     <use xlink:href="#CMMI12-48" transform="translate(265.015697 -14.943915) scale(0.697382)"/>
     <use xlink:href="#CMMI12-56" transform="translate(326.980655 -14.943915) scale(0.697382)"/>
     <use xlink:href="#CMMI12-56" transform="translate(381.963526 -14.943915) scale(0.697382)"/>
    </g>
   </g>
  </g>
 </g>
 <defs>
  <clipPath id="p864a420fb8">
   <rect x="0" y="0" width="1474.56" height="1474.56"/>
  </clipPath>
 </defs>
</svg>
