<?xml version="1.0" encoding="utf-8" standalone="no"?>
<!DOCTYPE svg PUBLIC "-//W3C//DTD SVG 1.1//EN"
  "http://www.w3.org/Graphics/SVG/1.1/DTD/svg11.dtd">
<svg xmlns:xlink="http://www.w3.org/1999/xlink" width="1474.56pt" height="1474.56pt" viewBox="0 0 1474.56 1474.56" xmlns="http://www.w3.org/2000/svg" version="1.1">
 <metadata>
  <rdf:RDF xmlns:dc="http://purl.org/dc/elements/1.1/" xmlns:cc="http://creativecommons.org/ns#" xmlns:rdf="http://www.w3.org/1999/02/22-rdf-syntax-ns#">
   <cc:Work>
    <dc:type rdf:resource="http://purl.org/dc/dcmitype/StillImage"/>
    <dc:date>2026-06-24T13:10:27.562129</dc:date>
    <dc:format>image/svg+xml</dc:format>
    <dc:creator>
     <cc:Agent>
      <dc:title>Matplotlib v3.10.9, https://matplotlib.org/</dc:title>
     </cc:Agent>
    </dc:creator>
   </cc:Work>
  </rdf:RDF>
 </metadata>
 <defs>
  <style type="text/css">*{stroke-linejoin: round; stroke-linecap: butt}</style>
 </defs>
 <g id="figure_1">
  <g id="patch_1">
   <path d="M 0 1474.56 
L 1474.56 1474.56 
L 1474.56 0 
L 0 0 
z
" style="fill: #ffffff"/>
  </g>
  <g id="axes_1">
   <g id="line2d_1">
    <path d="M 1351.68 737.28 
L 1351.570635 725.687928 
L 1351.242578 714.099983 
L 1350.695946 702.52029 
L 1349.930934 690.952972 
L 1348.947813 679.402146 
L 1347.746935 667.871925 
L 1346.328727 656.366415 
L 1344.693693 644.889709 
L 1342.842415 633.445896 
L 1340.775553 622.039048 
L 1338.493843 610.673227 
L 1335.998096 599.352479 
L 1333.289202 588.080833 
L 1330.368124 576.862304 
L 1327.235903 565.700885 
L 1323.893653 554.600548 
L 1320.342565 543.565247 
L 1316.583902 532.59891 
L 1312.619004 521.705441 
L 1308.449281 510.888717 
L 1304.076217 500.152591 
L 1299.50137 489.500883 
L 1294.726369 478.937387 
L 1289.752913 468.465862 
L 1284.582772 458.090037 
L 1279.217789 447.813606 
L 1273.659871 437.640227 
L 1267.910999 427.573521 
L 1261.973218 417.617073 
L 1255.848643 407.774427 
L 1249.539454 398.049088 
L 1243.047897 388.444517 
L 1236.376283 378.964134 
L 1229.526988 369.611313 
L 1222.502449 360.389386 
L 1215.305167 351.301634 
L 1207.937706 342.351293 
L 1200.402687 333.541549 
L 1192.702793 324.875539 
L 1184.840766 316.356348 
L 1176.819403 307.987008 
L 1168.641562 299.7705 
L 1160.310153 291.709748 
L 1151.828143 283.807622 
L 1143.19855 276.066936 
L 1134.424448 268.490444 
L 1125.508959 261.080845 
L 1116.455259 253.840776 
L 1107.266569 246.772815 
L 1097.946161 239.879477 
L 1088.497354 233.163218 
L 1078.923511 226.626428 
L 1069.228041 220.271433 
L 1059.414395 214.100498 
L 1049.486067 208.115818 
L 1039.446591 202.319524 
L 1029.299542 196.713679 
L 1019.048532 191.30028 
L 1008.697211 186.081254 
L 998.249263 181.058458 
L 987.708408 176.233681 
L 977.078399 171.60864 
L 966.36302 167.184982 
L 955.566086 162.964281 
L 944.691441 158.948041 
L 933.742955 155.137692 
L 922.724528 151.534588 
L 911.640081 148.140015 
L 900.49356 144.955179 
L 889.288935 141.981215 
L 878.030193 139.219181 
L 866.721343 136.670061 
L 855.366412 134.334763 
L 843.96944 132.214117 
L 832.534487 130.308878 
L 821.065622 128.619726 
L 809.566929 127.14726 
L 798.042501 125.892007 
L 786.496442 124.854411 
L 774.932861 124.034843 
L 763.355875 123.433595 
L 751.769606 123.05088 
L 740.178179 122.886836 
L 728.58572 122.941519 
L 716.996356 123.214911 
L 705.414214 123.706914 
L 693.843416 124.417354 
L 682.288081 125.345977 
L 670.752324 126.492452 
L 659.240252 127.856373 
L 647.755962 129.437252 
L 636.303543 131.234527 
L 624.887072 133.247559 
L 613.510614 135.47563 
L 602.178219 137.917948 
L 590.893921 140.573643 
L 579.661738 143.44177 
L 568.485668 146.521307 
L 557.369689 149.811158 
L 546.31776 153.310152 
L 535.333815 157.017044 
L 524.421764 160.930513 
L 513.585492 165.049166 
L 502.828857 169.371538 
L 492.155688 173.896088 
L 481.569785 178.621208 
L 471.074917 183.545214 
L 460.674819 188.666353 
L 450.373195 193.982802 
L 440.173712 199.492669 
L 430.08 205.193992 
L 420.095654 211.084741 
L 410.224227 217.162819 
L 400.469235 223.426063 
L 390.83415 229.872242 
L 381.322401 236.499062 
L 371.937376 243.304163 
L 362.682416 250.285123 
L 353.560815 257.439457 
L 344.57582 264.764617 
L 335.730631 272.257996 
L 327.028397 279.916925 
L 318.472214 287.73868 
L 310.065131 295.720474 
L 301.810138 303.859466 
L 293.710176 312.152759 
L 285.768128 320.5974 
L 277.986821 329.190383 
L 270.369025 337.928649 
L 262.917453 346.809086 
L 255.634758 355.828534 
L 248.523531 364.983782 
L 241.586305 374.271569 
L 234.82555 383.68859 
L 228.243672 393.231491 
L 221.843014 402.896877 
L 215.625855 412.681305 
L 209.594409 422.581292 
L 203.750822 432.593315 
L 198.097176 442.713807 
L 192.635482 452.939168 
L 187.367685 463.265756 
L 182.295661 473.689894 
L 177.421216 484.207873 
L 172.746083 494.815947 
L 168.271929 505.51034 
L 164.000346 516.287245 
L 159.932854 527.142824 
L 156.070901 538.073214 
L 152.415863 549.074522 
L 148.969041 560.142833 
L 145.731662 571.274207 
L 142.704877 582.464679 
L 139.889766 593.710267 
L 137.28733 605.006966 
L 134.898495 616.350756 
L 132.724112 627.737597 
L 130.764955 639.163436 
L 129.021722 650.624206 
L 127.495032 662.115825 
L 126.185431 673.634203 
L 125.093383 685.17524 
L 124.219278 696.734826 
L 123.563427 708.308847 
L 123.126063 719.893182 
L 122.907342 731.483706 
L 122.907342 743.076294 
L 123.126063 754.666818 
L 123.563427 766.251153 
L 124.219278 777.825174 
L 125.093383 789.38476 
L 126.185431 800.925797 
L 127.495032 812.444175 
L 129.021722 823.935794 
L 130.764955 835.396564 
L 132.724112 846.822403 
L 134.898495 858.209244 
L 137.28733 869.553034 
L 139.889766 880.849733 
L 142.704877 892.095321 
L 145.731662 903.285793 
L 148.969041 914.417167 
L 152.415863 925.485478 
L 156.070901 936.486786 
L 159.932854 947.417176 
L 164.000346 958.272755 
L 168.271929 969.04966 
L 172.746083 979.744053 
L 177.421216 990.352127 
L 182.295661 1000.870106 
L 187.367685 1011.294244 
L 192.635482 1021.620832 
L 198.097176 1031.846193 
L 203.750822 1041.966685 
L 209.594409 1051.978708 
L 215.625855 1061.878695 
L 221.843014 1071.663123 
L 228.243672 1081.328509 
L 234.82555 1090.87141 
L 241.586305 1100.288431 
L 248.523531 1109.576218 
L 255.634758 1118.731466 
L 262.917453 1127.750914 
L 270.369025 1136.631351 
L 277.986821 1145.369617 
L 285.768128 1153.9626 
L 293.710176 1162.407241 
L 301.810138 1170.700534 
L 310.065131 1178.839526 
L 318.472214 1186.82132 
L 327.028397 1194.643075 
L 335.730631 1202.302004 
L 344.57582 1209.795383 
L 353.560815 1217.120543 
L 362.682416 1224.274877 
L 371.937376 1231.255837 
L 381.322401 1238.060938 
L 390.83415 1244.687758 
L 400.469235 1251.133937 
L 410.224227 1257.397181 
L 420.095654 1263.475259 
L 430.08 1269.366008 
L 440.173712 1275.067331 
L 450.373195 1280.577198 
L 460.674819 1285.893647 
L 471.074917 1291.014786 
L 481.569785 1295.938792 
L 492.155688 1300.663912 
L 502.828857 1305.188462 
L 513.585492 1309.510834 
L 524.421764 1313.629487 
L 535.333815 1317.542956 
L 546.31776 1321.249848 
L 557.369689 1324.748842 
L 568.485668 1328.038693 
L 579.661738 1331.11823 
L 590.893921 1333.986357 
L 602.178219 1336.642052 
L 613.510614 1339.08437 
L 624.887072 1341.312441 
L 636.303543 1343.325473 
L 647.755962 1345.122748 
L 659.240252 1346.703627 
L 670.752324 1348.067548 
L 682.288081 1349.214023 
L 693.843416 1350.142646 
L 705.414214 1350.853086 
L 716.996356 1351.345089 
L 728.58572 1351.618481 
L 740.178179 1351.673164 
L 751.769606 1351.50912 
L 763.355875 1351.126405 
L 774.932861 1350.525157 
L 786.496442 1349.705589 
L 798.042501 1348.667993 
L 809.566929 1347.41274 
L 821.065622 1345.940274 
L 832.534487 1344.251122 
L 843.96944 1342.345883 
L 855.366412 1340.225237 
L 866.721343 1337.889939 
L 878.030193 1335.340819 
L 889.288935 1332.578785 
L 900.49356 1329.604821 
L 911.640081 1326.419985 
L 922.724528 1323.025412 
L 933.742955 1319.422308 
L 944.691441 1315.611959 
L 955.566086 1311.595719 
L 966.36302 1307.375018 
L 977.078399 1302.95136 
L 987.708408 1298.326319 
L 998.249263 1293.501542 
L 1008.697211 1288.478746 
L 1019.048532 1283.25972 
L 1029.299542 1277.846321 
L 1039.446591 1272.240476 
L 1049.486067 1266.444182 
L 1059.414395 1260.459502 
L 1069.228041 1254.288567 
L 1078.923511 1247.933572 
L 1088.497354 1241.396782 
L 1097.946161 1234.680523 
L 1107.266569 1227.787185 
L 1116.455259 1220.719224 
L 1125.508959 1213.479155 
L 1134.424448 1206.069556 
L 1143.19855 1198.493064 
L 1151.828143 1190.752378 
L 1160.310153 1182.850252 
L 1168.641562 1174.7895 
L 1176.819403 1166.572992 
L 1184.840766 1158.203652 
L 1192.702793 1149.684461 
L 1200.402687 1141.018451 
L 1207.937706 1132.208707 
L 1215.305167 1123.258366 
L 1222.502449 1114.170614 
L 1229.526988 1104.948687 
L 1236.376283 1095.595866 
L 1243.047897 1086.115483 
L 1249.539454 1076.510912 
L 1255.848643 1066.785573 
L 1261.973218 1056.942927 
L 1267.910999 1046.986479 
L 1273.659871 1036.919773 
L 1279.217789 1026.746394 
L 1284.582772 1016.469963 
L 1289.752913 1006.094138 
L 1294.726369 995.622613 
L 1299.50137 985.059117 
L 1304.076217 974.407409 
L 1308.449281 963.671283 
L 1312.619004 952.854559 
L 1316.583902 941.96109 
L 1320.342565 930.994753 
L 1323.893653 919.959452 
L 1327.235903 908.859115 
L 1330.368124 897.697696 
L 1333.289202 886.479167 
L 1335.998096 875.207521 
L 1338.493843 863.886773 
L 1340.775553 852.520952 
L 1342.842415 841.114104 
L 1344.693693 829.670291 
L 1346.328727 818.193585 
L 1347.746935 806.688075 
L 1348.947813 795.157854 
L 1349.930934 783.607028 
L 1350.695946 772.03971 
L 1351.242578 760.460017 
L 1351.570635 748.872072 
L 1351.68 737.28 
L 1351.68 737.28 
" clip-path="url(#pfea0029d8e)" style="fill: none; stroke: #000000; stroke-width: 1.5; stroke-linecap: square"/>
   </g>
   <g id="line2d_2">
    <path d="M 1351.68 737.28 
L 430.08 205.193992 
L 430.08 1269.366008 
L 1351.68 737.28 
" clip-path="url(#pfea0029d8e)" style="fill: none; stroke: #000000; stroke-linecap: square"/>
   </g>
   <g id="text_1">
    <!-- A -->
    <g transform="translate(1381.622145 775.745014) scale(1 -1)">
     <defs>
      <path id="CMSS17-41" d="M 2272 4416 
L 1722 4416 
L 166 0 
L 653 0 
L 1101 1280 
L 2816 1280 
L 3270 0 
L 3827 0 
L 2272 4416 
z
M 2694 1638 
L 1222 1638 
C 1530 2530 1914 3638 1958 3924 
L 1965 3924 
C 2010 3663 2138 3281 2246 2956 
L 2694 1638 
z
" transform="scale(0.015625)"/>
     </defs>
     <use xlink:href="#CMSS17-41" transform="scale(0.996264)"/>
    </g>
   </g>
   <g id="text_2">
    <!-- B -->
    <g transform="translate(367.74196 182.219006) scale(1 -1)">
     <defs>
      <path id="CMSS17-42" d="M 570 4416 
L 570 0 
L 2163 0 
C 3034 0 3667 575 3667 1200 
C 3667 1684 3251 2175 2502 2316 
C 3334 2559 3501 3039 3501 3311 
C 3501 3880 2874 4416 1997 4416 
L 570 4416 
z
M 1088 2496 
L 1088 4057 
L 1824 4057 
C 2483 4057 3002 3722 3002 3305 
C 3002 2925 2592 2496 1766 2496 
L 1088 2496 
z
M 1088 358 
L 1088 2105 
L 1939 2105 
C 2630 2105 3162 1678 3162 1206 
C 3162 772 2694 358 1984 358 
L 1088 358 
z
" transform="scale(0.015625)"/>
     </defs>
     <use xlink:href="#CMSS17-42" transform="scale(0.996264)"/>
    </g>
   </g>
   <g id="text_3">
    <!-- C -->
    <g transform="translate(370.224228 1369.271022) scale(1 -1)">
     <defs>
      <path id="CMSS17-43" d="M 3501 705 
C 3072 416 2874 332 2355 332 
C 1459 332 934 1304 934 2191 
C 934 3137 1472 4070 2381 4070 
C 2790 4070 3059 3954 3386 3748 
L 3475 4255 
C 3168 4409 2778 4480 2387 4480 
C 1158 4480 397 3343 397 2191 
C 397 924 1299 -77 2323 -77 
C 2874 -77 3066 -32 3539 268 
L 3501 705 
z
" transform="scale(0.015625)"/>
     </defs>
     <use xlink:href="#CMSS17-43" transform="scale(0.996264)"/>
    </g>
   </g>
  </g>
 </g>
 <defs>
  <clipPath id="pfea0029d8e">
   <rect x="0" y="0" width="1474.56" height="1474.56"/>
  </clipPath>
 </defs>
</svg>
