<?xml version="1.0" encoding="utf-8" standalone="no"?>
<!DOCTYPE svg PUBLIC "-//W3C//DTD SVG 1.1//EN"
  "http://www.w3.org/Graphics/SVG/1.1/DTD/svg11.dtd">
<svg xmlns:xlink="http://www.w3.org/1999/xlink" width="1474.56pt" height="1474.56pt" viewBox="0 0 1474.56 1474.56" xmlns="http://www.w3.org/2000/svg" version="1.1">
 <metadata>
  <rdf:RDF xmlns:dc="http://purl.org/dc/elements/1.1/" xmlns:cc="http://creativecommons.org/ns#" xmlns:rdf="http://www.w3.org/1999/02/22-rdf-syntax-ns#">
   <cc:Work>
    <dc:type rdf:resource="http://purl.org/dc/dcmitype/StillImage"/>
    <dc:date>2026-06-24T13:11:11.465129</dc:date>
    <dc:format>image/svg+xml</dc:format>
    <dc:creator>
     <cc:Agent>
      <dc:title>Matplotlib v3.10.9, https://matplotlib.org/</dc:title>
     </cc:Agent>
    </dc:creator>
   </cc:Work>
  </rdf:RDF>
 </metadata>
 <defs>
  <style type="text/css">*{stroke-linejoin: round; stroke-linecap: butt}</style>
 </defs>
 <g id="figure_1">
  <g id="patch_1">
   <path d="M 0 1474.56 
L 1474.56 1474.56 
L 1474.56 0 
L 0 0 
z
" style="fill: #ffffff"/>
  </g>
  <g id="axes_1">
   <g id="line2d_1">
    <path d="M 1474.56 737.28 
L 1474.428762 723.369514 
L 1474.035093 709.463979 
L 1473.379135 695.568348 
L 1472.46112 681.687566 
L 1471.281376 667.826575 
L 1469.840322 653.99031 
L 1468.138472 640.183697 
L 1466.176431 626.411651 
L 1463.954898 612.679075 
L 1461.474664 598.990858 
L 1458.736612 585.351872 
L 1455.741716 571.766974 
L 1452.491042 558.241 
L 1448.985749 544.778765 
L 1445.227083 531.385061 
L 1441.216384 518.064658 
L 1436.955078 504.822297 
L 1432.444683 491.662692 
L 1427.686805 478.590529 
L 1422.683137 465.610461 
L 1417.435461 452.727109 
L 1411.945645 439.94506 
L 1406.215643 427.268864 
L 1400.247495 414.703035 
L 1394.043327 402.252045 
L 1387.605346 389.920327 
L 1380.935845 377.712272 
L 1374.037198 365.632225 
L 1366.911862 353.684488 
L 1359.562372 341.873313 
L 1351.991345 330.202905 
L 1344.201476 318.67742 
L 1336.19554 307.30096 
L 1327.976385 296.077576 
L 1319.546939 285.011263 
L 1310.910201 274.10596 
L 1302.069247 263.365551 
L 1293.027224 252.793859 
L 1283.787352 242.394647 
L 1274.352919 232.171617 
L 1264.727284 222.12841 
L 1254.913875 212.2686 
L 1244.916184 202.595698 
L 1234.737771 193.113147 
L 1224.38226 183.824323 
L 1213.853337 174.732533 
L 1203.154751 165.841014 
L 1192.29031 157.152931 
L 1181.263883 148.671378 
L 1170.079394 140.399373 
L 1158.740825 132.339861 
L 1147.252214 124.495713 
L 1135.617649 116.86972 
L 1123.841274 109.464597 
L 1111.92728 102.282981 
L 1099.879909 95.327428 
L 1087.703451 88.600415 
L 1075.402239 82.104336 
L 1062.980653 75.841505 
L 1050.443115 69.814149 
L 1037.794089 64.024417 
L 1025.038079 58.474368 
L 1012.179624 53.165978 
L 999.223303 48.101138 
L 986.173729 43.28165 
L 973.035546 38.70923 
L 959.813433 34.385506 
L 946.512097 30.312018 
L 933.136273 26.490215 
L 919.690722 22.921458 
L 906.180232 19.607017 
L 892.609612 16.548073 
L 878.983694 13.745715 
L 865.307328 11.20094 
L 851.585384 8.914654 
L 837.822746 6.887671 
L 824.024315 5.120713 
L 810.195002 3.614408 
L 796.33973 2.369293 
L 782.463433 1.385812 
L 768.57105 0.664314 
L 754.667528 0.205057 
L 740.757815 0.008203 
L 726.846864 0.073823 
L 712.939628 0.401893 
L 699.041057 0.992297 
L 685.156099 1.844825 
L 671.289697 2.959172 
L 657.446789 4.334943 
L 643.632302 5.971647 
L 629.851154 7.868702 
L 616.108251 10.025433 
L 602.408487 12.441071 
L 588.756737 15.114757 
L 575.157863 18.045538 
L 561.616706 21.232372 
L 548.138086 24.674124 
L 534.726801 28.369568 
L 521.387627 32.31739 
L 508.125312 36.516183 
L 494.944578 40.964452 
L 481.850117 45.660615 
L 468.846591 50.602999 
L 455.938629 55.789845 
L 443.130826 61.219306 
L 430.427742 66.889449 
L 417.8339 72.798256 
L 405.353783 78.943623 
L 392.991834 85.323363 
L 380.752454 91.935203 
L 368.64 98.77679 
L 356.658785 105.845689 
L 344.813073 113.139383 
L 333.107082 120.655276 
L 321.54498 128.390691 
L 310.130882 136.342874 
L 298.868852 144.508996 
L 287.762899 152.886148 
L 276.816978 161.471348 
L 266.034985 170.26154 
L 255.420758 179.253595 
L 244.978076 188.44431 
L 234.710657 197.830416 
L 224.622157 207.408568 
L 214.716166 217.175359 
L 204.996211 227.127311 
L 195.465753 237.26088 
L 186.128185 247.57246 
L 176.98683 258.058379 
L 168.044944 268.714904 
L 159.305709 279.538241 
L 150.772237 290.524538 
L 142.447566 301.669883 
L 134.33466 312.970308 
L 126.436406 324.42179 
L 118.755616 336.020252 
L 111.295026 347.761566 
L 104.05729 359.641551 
L 97.044986 371.655978 
L 90.260611 383.800569 
L 83.706578 396.071002 
L 77.385222 408.462907 
L 71.298793 420.971873 
L 65.449459 433.593448 
L 59.8393 446.323137 
L 54.470315 459.156408 
L 49.344415 472.088693 
L 44.463425 485.115389 
L 39.829082 498.231856 
L 35.443036 511.433427 
L 31.306849 524.7154 
L 27.421994 538.073048 
L 23.789853 551.501615 
L 20.411719 564.99632 
L 17.288795 578.55236 
L 14.422194 592.164907 
L 11.812934 605.829117 
L 9.461946 619.540124 
L 7.370066 633.293047 
L 5.538039 647.08299 
L 3.966517 660.905044 
L 2.65606 674.754288 
L 1.607134 688.625792 
L 0.820112 702.514616 
L 0.295275 716.415818 
L 0.03281 730.324447 
L 0.03281 744.235553 
L 0.295275 758.144182 
L 0.820112 772.045384 
L 1.607134 785.934208 
L 2.65606 799.805712 
L 3.966517 813.654956 
L 5.538039 827.47701 
L 7.370066 841.266953 
L 9.461946 855.019876 
L 11.812934 868.730883 
L 14.422194 882.395093 
L 17.288795 896.00764 
L 20.411719 909.56368 
L 23.789853 923.058385 
L 27.421994 936.486952 
L 31.306849 949.8446 
L 35.443036 963.126573 
L 39.829082 976.328144 
L 44.463425 989.444611 
L 49.344415 1002.471307 
L 54.470315 1015.403592 
L 59.8393 1028.236863 
L 65.449459 1040.966552 
L 71.298793 1053.588127 
L 77.385222 1066.097093 
L 83.706578 1078.488998 
L 90.260611 1090.759431 
L 97.044986 1102.904022 
L 104.05729 1114.918449 
L 111.295026 1126.798434 
L 118.755616 1138.539748 
L 126.436406 1150.13821 
L 134.33466 1161.589692 
L 142.447566 1172.890117 
L 150.772237 1184.035462 
L 159.305709 1195.021759 
L 168.044944 1205.845096 
L 176.98683 1216.501621 
L 186.128185 1226.98754 
L 195.465753 1237.29912 
L 204.996211 1247.432689 
L 214.716166 1257.384641 
L 224.622157 1267.151432 
L 234.710657 1276.729584 
L 244.978076 1286.11569 
L 255.420758 1295.306405 
L 266.034985 1304.29846 
L 276.816978 1313.088652 
L 287.762899 1321.673852 
L 298.868852 1330.051004 
L 310.130882 1338.217126 
L 321.54498 1346.169309 
L 333.107082 1353.904724 
L 344.813073 1361.420617 
L 356.658785 1368.714311 
L 368.64 1375.78321 
L 380.752454 1382.624797 
L 392.991834 1389.236637 
L 405.353783 1395.616377 
L 417.8339 1401.761744 
L 430.427742 1407.670551 
L 443.130826 1413.340694 
L 455.938629 1418.770155 
L 468.846591 1423.957001 
L 481.850117 1428.899385 
L 494.944578 1433.595548 
L 508.125312 1438.043817 
L 521.387627 1442.24261 
L 534.726801 1446.190432 
L 548.138086 1449.885876 
L 561.616706 1453.327628 
L 575.157863 1456.514462 
L 588.756737 1459.445243 
L 602.408487 1462.118929 
L 616.108251 1464.534567 
L 629.851154 1466.691298 
L 643.632302 1468.588353 
L 657.446789 1470.225057 
L 671.289697 1471.600828 
L 685.156099 1472.715175 
L 699.041057 1473.567703 
L 712.939628 1474.158107 
L 726.846864 1474.486177 
L 740.757815 1474.551797 
L 754.667528 1474.354943 
L 768.57105 1473.895686 
L 782.463433 1473.174188 
L 796.33973 1472.190707 
L 810.195002 1470.945592 
L 824.024315 1469.439287 
L 837.822746 1467.672329 
L 851.585384 1465.645346 
L 865.307328 1463.35906 
L 878.983694 1460.814285 
L 892.609612 1458.011927 
L 906.180232 1454.952983 
L 919.690722 1451.638542 
L 933.136273 1448.069785 
L 946.512097 1444.247982 
L 959.813433 1440.174494 
L 973.035546 1435.85077 
L 986.173729 1431.27835 
L 999.223303 1426.458862 
L 1012.179624 1421.394022 
L 1025.038079 1416.085632 
L 1037.794089 1410.535583 
L 1050.443115 1404.745851 
L 1062.980653 1398.718495 
L 1075.402239 1392.455664 
L 1087.703451 1385.959585 
L 1099.879909 1379.232572 
L 1111.92728 1372.277019 
L 1123.841274 1365.095403 
L 1135.617649 1357.69028 
L 1147.252214 1350.064287 
L 1158.740825 1342.220139 
L 1170.079394 1334.160627 
L 1181.263883 1325.888622 
L 1192.29031 1317.407069 
L 1203.154751 1308.718986 
L 1213.853337 1299.827467 
L 1224.38226 1290.735677 
L 1234.737771 1281.446853 
L 1244.916184 1271.964302 
L 1254.913875 1262.2914 
L 1264.727284 1252.43159 
L 1274.352919 1242.388383 
L 1283.787352 1232.165353 
L 1293.027224 1221.766141 
L 1302.069247 1211.194449 
L 1310.910201 1200.45404 
L 1319.546939 1189.548737 
L 1327.976385 1178.482424 
L 1336.19554 1167.25904 
L 1344.201476 1155.88258 
L 1351.991345 1144.357095 
L 1359.562372 1132.686687 
L 1366.911862 1120.875512 
L 1374.037198 1108.927775 
L 1380.935845 1096.847728 
L 1387.605346 1084.639673 
L 1394.043327 1072.307955 
L 1400.247495 1059.856965 
L 1406.215643 1047.291136 
L 1411.945645 1034.61494 
L 1417.435461 1021.832891 
L 1422.683137 1008.949539 
L 1427.686805 995.969471 
L 1432.444683 982.897308 
L 1436.955078 969.737703 
L 1441.216384 956.495342 
L 1445.227083 943.174939 
L 1448.985749 929.781235 
L 1452.491042 916.319 
L 1455.741716 902.793026 
L 1458.736612 889.208128 
L 1461.474664 875.569142 
L 1463.954898 861.880925 
L 1466.176431 848.148349 
L 1468.138472 834.376303 
L 1469.840322 820.56969 
L 1471.281376 806.733425 
L 1472.46112 792.872434 
L 1473.379135 778.991652 
L 1474.035093 765.096021 
L 1474.428762 751.190486 
L 1474.56 737.28 
L 1474.56 737.28 
" clip-path="url(#p687d937b5d)" style="fill: none; stroke: #000000; stroke-width: 1.5; stroke-linecap: square"/>
   </g>
   <g id="line2d_2">
    <path d="M 98.77679 1105.92 
L 1375.78321 1105.92 
L 737.28 0 
L 98.77679 1105.92 
" clip-path="url(#p687d937b5d)" style="fill: none; stroke: #000000; stroke-linecap: square"/>
   </g>
   <g id="line2d_3">
    <path d="M 539.971657 1447.668074 
L 934.588343 1447.668074 
L 737.28 1105.92 
L 539.971657 1447.668074 
" clip-path="url(#p687d937b5d)" style="fill: none; stroke: #000000; stroke-linecap: square"/>
   </g>
  </g>
 </g>
 <defs>
  <clipPath id="p687d937b5d">
   <rect x="0" y="0" width="1474.56" height="1474.56"/>
  </clipPath>
 </defs>
</svg>
